<svg width="170" height="55" viewBox="0 0 170 55" fill="none" xmlns="http://www.w3.org/2000/svg">
<rect x="0.386475" y="0.349609" width="169.021" height="54.1247" rx="5.99794" fill="#00529B"/>
<g clip-path="url(#clip0_762_502)">
<path d="M69.5914 17.7835C69.5914 16.6146 70.5517 15.6738 71.7447 15.6738C72.9377 15.6738 73.8979 16.6146 73.8979 17.7835C73.8979 18.9524 72.9377 19.8932 71.7447 19.8932C70.5517 19.8932 69.5914 18.9524 69.5914 17.7835Z" fill="white"/>
<path d="M103.665 31.8929C103.665 30.724 104.625 29.7832 105.818 29.7832C107.011 29.7832 107.972 30.724 107.972 31.8929C107.972 33.0618 107.011 34.0026 105.818 34.0026C104.625 34.0026 103.665 33.0618 103.665 31.8929Z" fill="white"/>
<path d="M34.15 20.8633C30.2217 20.8633 27.3701 23.6287 27.3701 27.4775C27.3701 31.3263 30.2217 34.0632 34.15 34.0632C38.0782 34.0632 40.9589 31.2978 40.9589 27.4775C40.9589 23.6572 38.1073 20.8633 34.15 20.8633M34.15 30.9842C32.2877 30.9842 31.0074 29.5302 31.0074 27.4775C31.0074 25.4248 32.2877 23.9708 34.15 23.9708C36.0122 23.9708 37.3217 25.4248 37.3217 27.4775C37.3217 29.5302 36.0413 30.9842 34.15 30.9842Z" fill="white"/>
<path d="M65.4013 27.7897C65.2558 27.5046 65.0812 27.2765 64.8775 27.077L64.7611 26.9629L64.8775 26.8489C65.0521 26.6493 65.2558 26.4498 65.4304 26.1932L68.8931 21.147H64.6738L62.055 25.1098C61.9095 25.3094 61.6185 25.4234 61.153 25.4234H60.5419V17.9254C60.5419 16.4144 59.5817 16.2148 58.5632 16.2148H56.7883V33.8908H60.5419V28.588H60.8911C61.3276 28.588 61.6185 28.645 61.7349 28.8731L63.8009 32.6648C64.3829 33.6912 64.9648 33.8622 66.0414 33.8622H68.9222L66.798 30.4126L65.3722 27.7897H65.4013Z" fill="white"/>
<path d="M83.5294 20.832C81.638 20.832 80.4159 21.6588 79.7466 22.3715L79.5138 22.5996L79.4265 22.286C79.2229 21.5448 78.5536 21.1171 77.5352 21.1171H75.8475V33.8609H79.572V27.9879C79.572 27.4177 79.6593 26.9046 79.8048 26.4769C80.2122 25.1085 81.3761 24.2532 82.8019 24.2532C83.9658 24.2532 84.4023 24.8519 84.4023 26.3914V31.9507C84.4023 33.2622 85.0134 33.8894 86.381 33.8894H88.1269V25.7642C88.1269 22.5426 86.5265 20.832 83.4712 20.832" fill="white"/>
<path d="M71.8029 21.1191H70.057V30.9834V33.8629H73.7524V23.0578C73.7524 21.7464 73.1414 21.1191 71.8029 21.1191" fill="white"/>
<path d="M48.7281 20.8633C44.7999 20.8633 41.9483 23.6287 41.9483 27.4775C41.9483 31.3263 44.7999 34.0632 48.7281 34.0632C52.6564 34.0632 55.5371 31.2978 55.5371 27.4775C55.5371 23.6572 52.6564 20.8633 48.7281 20.8633M48.7281 30.9842C46.8659 30.9842 45.5856 29.5302 45.5856 27.4775C45.5856 25.4248 46.8659 23.9708 48.7281 23.9708C50.5904 23.9708 51.8998 25.4248 51.8998 27.4775C51.8998 29.5302 50.6195 30.9842 48.7281 30.9842Z" fill="white"/>
<path d="M128.224 20.8633C124.296 20.8633 121.444 23.6287 121.444 27.4775C121.444 31.3263 124.296 34.0632 128.224 34.0632C132.152 34.0632 135.033 31.2978 135.033 27.4775C135.033 23.6572 132.152 20.8633 128.224 20.8633M128.224 30.9842C126.362 30.9842 125.081 29.5302 125.081 27.4775C125.081 25.4248 126.391 23.9708 128.224 23.9708C130.057 23.9708 131.396 25.4248 131.396 27.4775C131.396 29.5302 130.115 30.9842 128.224 30.9842Z" fill="white"/>
<path d="M100.464 21.0878C99.7661 21.0878 99.2132 21.3729 98.9513 21.8576L98.864 22.0572L98.6894 21.9146C98.0784 21.4014 97.0018 20.8027 95.285 20.8027C91.8223 20.8027 89.4654 23.3401 89.4654 27.1604C89.4654 30.9806 91.8805 33.6035 95.3432 33.6035C96.5362 33.6035 97.4673 33.3469 98.1948 32.7767L98.4858 32.5487V32.9193C98.4858 34.6299 97.3509 35.5707 95.3141 35.5707C94.3247 35.5707 93.4227 35.3426 92.8116 35.1145C92.026 34.8864 91.5604 35.086 91.2403 35.8558L90.9494 36.5685L90.542 37.6234L90.8039 37.7659C92.1133 38.4501 93.801 38.8493 95.3432 38.8493C98.5149 38.8493 102.181 37.2527 102.181 32.8052V21.0878H100.464V21.0878ZM95.9833 30.4104C93.9465 30.4104 93.2481 28.6714 93.2481 27.0463C93.2481 26.3336 93.4227 23.9958 95.7796 23.9958C96.9727 23.9958 98.544 24.3379 98.544 27.1604C98.544 29.8403 97.1472 30.4104 95.9833 30.4104Z" fill="white"/>
<path d="M24.1985 24.8236L23.6456 24.51L24.1112 24.1108C24.664 23.6547 25.5952 22.5998 25.5952 20.7752C25.6243 18.0098 23.4128 16.2422 20.0083 16.2422H15.7018C14.6834 16.2707 13.8687 17.069 13.8687 18.0668V33.8041H20.0956C23.8784 33.8041 26.3226 31.7799 26.3226 28.6723C26.3226 26.9903 25.537 25.5648 24.1985 24.8236ZM17.3313 21.2884V20.3476C17.3313 19.5208 17.6805 19.1502 18.4661 19.0931H20.0083C21.3469 19.0931 22.1325 19.8629 22.1325 21.1743C22.1325 22.1722 21.5796 23.3126 20.0665 23.3126H17.3604V21.2599L17.3313 21.2884ZM26.9046 31.3524H17.0112V27.8172C17.0112 27.0474 17.3022 26.6768 17.9715 26.5913H20.0083C21.4923 26.5913 22.4235 27.5036 22.4235 28.9576C22.4235 30.4116 21.4923 31.3524 20.0083 31.3524" fill="white"/>
<path d="M151.619 20.8887C150.077 20.8887 148.593 21.6014 147.632 22.7703L147.371 23.1124L147.167 22.7418C146.468 21.5159 145.305 20.8887 143.646 20.8887C141.929 20.8887 140.765 21.8295 140.242 22.3997L139.892 22.7703L139.776 22.2856C139.572 21.5729 138.932 21.2023 137.972 21.2023H136.401V33.8605H139.921V28.2441C139.921 27.7595 139.98 27.2748 140.125 26.7616C140.474 25.4217 141.376 23.9392 142.948 24.1102C143.908 24.1958 144.373 24.937 144.373 26.334V33.8605H147.953V28.2441C147.953 27.6454 148.011 27.1608 148.156 26.7046C148.447 25.4217 149.407 24.0817 150.92 24.0817C151.997 24.0817 152.404 24.6804 152.404 26.3055V31.9789C152.404 33.2618 152.986 33.832 154.296 33.832H155.954V25.7638C155.954 22.5137 154.5 20.8887 151.648 20.8887" fill="white"/>
<path d="M119.378 29.47C119.378 29.47 117.836 31.0666 115.828 31.0666C113.995 31.0666 112.162 29.9832 112.162 27.5029C112.162 25.3932 113.588 23.9107 115.654 23.9107C116.323 23.9107 117.079 24.1388 117.196 24.5379V24.5949C117.487 25.4787 118.302 25.5357 118.476 25.5357H120.426V23.8822C120.426 21.6869 117.574 20.8887 115.683 20.8887C111.58 20.8887 108.612 23.6826 108.612 27.5314C108.612 31.3802 111.551 34.1741 115.595 34.1741C119.116 34.1741 121.037 31.9219 121.037 31.8934L121.153 31.7793L119.611 29.2705L119.407 29.4986L119.378 29.47Z" fill="white"/>
</g>
<defs>
<clipPath id="clip0_762_502">
<rect width="142.057" height="23.1497" fill="white" transform="translate(13.8688 15.6738)"/>
</clipPath>
</defs>
</svg>
